<svg width="35" height="31" viewBox="0 0 35 31" fill="none" xmlns="http://www.w3.org/2000/svg">
<path d="M30.2791 0H0C2.19767 0.473282 3.74418 2.36641 3.74418 4.49618V31C6.75581 28.0814 8.38371 24.2163 8.38371 20.1145V5.28499C8.38371 4.89058 8.70929 4.49618 9.19766 4.49618C9.60464 4.49618 10.0116 4.8117 10.0116 5.28499V25.0051C13.0232 22.0865 14.6512 18.2214 14.6512 14.1196V5.28499C14.6512 4.89058 14.9767 4.49618 15.4651 4.49618C15.8721 4.49618 16.2791 4.8117 16.2791 5.28499V19.0102L20.3488 15.0662C20.5116 14.9084 20.593 14.7506 20.6744 14.5929V14.514C20.8372 14.2774 20.8372 14.0407 20.9186 13.7252C21.3256 8.59796 25.7209 4.49618 31.1744 4.49618H35L30.2791 0Z" fill="#27B3AA"/>
</svg>
